<svg width="1920" height="1080" viewBox="0 0 1920 1080" xmlns="http://www.w3.org/2000/svg"><rect width="1920" height="1080" fill="#a3a3a3"/><path d="M 0,1080 C 0,1080 0,120 0,120 C 49.356353591160214,139.93504982949588 98.71270718232043,159.8700996589918 157,158 C 215.28729281767957,156.1299003410082 282.5055248618785,132.45465119352878 359,125 C 435.4944751381215,117.54534880647124 521.2651933701657,126.31129556689312 600,115 C 678.7348066298343,103.68870443310688 750.4337016574585,72.30016653889875 799,81 C 847.5662983425415,89.69983346110125 872.9999999999999,138.48803827751195 924,156 C 975.0000000000001,173.51196172248805 1051.5662983425416,159.74768035105342 1121,159 C 1190.4337016574584,158.25231964894658 1252.734806629834,170.52124031827438 1330,156 C 1407.265193370166,141.47875968172562 1499.4944751381215,100.1673583758492 1558,100 C 1616.5055248618785,99.8326416241508 1641.2872928176796,140.8093261783288 1696,151 C 1750.7127071823204,161.1906738216712 1835.3563535911603,140.5953369108356 1920,120 C 1920,120 1920,1080 1920,1080 Z" fill="#141414" opacity="0.06666666666666667"/><path d="M 0,1080 C 0,1080 0,240 0,240 C 77.32037590208569,217.43034444473815 154.64075180417137,194.8606888894763 220,198 C 285.3592481958286,201.1393111105237 338.75736868540014,229.98758888683287 401,232 C 463.24263131459986,234.01241111316713 534.3297734542282,209.18895556319228 593,209 C 651.6702265457718,208.81104443680772 697.923537497687,233.2565888603981 759,243 C 820.076462502313,252.7434111396019 895.9760765550238,247.78468899521533 965,233 C 1034.0239234449762,218.21531100478467 1096.1721562822174,193.60465515874068 1151,203 C 1205.8278437177826,212.39534484125932 1253.3352983161067,255.7966903698221 1321,264 C 1388.6647016838933,272.2033096301779 1476.4866504533559,245.208583361971 1545,225 C 1613.5133495466441,204.791416638029 1662.7180998704698,191.368976182294 1722,195 C 1781.2819001295302,198.631023817706 1850.640950064765,219.315511908853 1920,240 C 1920,240 1920,1080 1920,1080 Z" fill="#141414" opacity="0.13333333333333333"/><path d="M 0,1080 C 0,1080 0,360 0,360 C 51.28583890665891,362.70913849163344 102.57167781331782,365.4182769832668 174,378 C 245.42832218668218,390.5817230167332 336.9991276533876,413.03603055856615 399,402 C 461.0008723466124,390.96396944143385 493.43181157313177,346.4376007824684 553,334 C 612.5681884268682,321.5623992175316 699.2736260540854,341.21356631155993 765,349 C 830.7263739459146,356.78643368844007 875.4736842105262,352.7081339712919 936,360 C 996.5263157894738,367.2918660287081 1072.8316371038095,385.95389780327264 1152,376 C 1231.1683628961905,366.04610219672736 1313.1997673742364,327.4762748156176 1378,326 C 1442.8002326257636,324.5237251843824 1490.369293399244,360.14100293425685 1544,371 C 1597.630706600756,381.85899706574315 1657.3230590287874,367.95971344735517 1721,362 C 1784.6769409712126,356.04028655264483 1852.3384704856062,358.0201432763224 1920,360 C 1920,360 1920,1080 1920,1080 Z" fill="#141414" opacity="0.2"/><path d="M 0,1080 C 0,1080 0,480 0,480 C 79.04714636918766,487.0647122577916 158.09429273837532,494.12942451558325 221,500 C 283.9057072616247,505.87057548441675 330.66997541568645,510.54701419545853 389,493 C 447.33002458431355,475.45298580454147 517.2258055988792,435.6825187025827 592,441 C 666.7741944011208,446.3174812974173 746.4268021887968,496.7229109942108 803,504 C 859.5731978112032,511.2770890057892 893.066985645933,475.42583732057415 940,471 C 986.933014354067,466.57416267942585 1047.3052552274712,493.5737397234925 1123,507 C 1198.6947447725288,520.4262602765075 1289.711993444183,520.2792037854556 1367,520 C 1444.288006555817,519.7207962145444 1507.8467709957968,519.3094451346851 1561,505 C 1614.1532290042032,490.69055486531494 1656.9009225726295,462.4830156758042 1715,456 C 1773.0990774273705,449.5169843241958 1846.5495387136853,464.7584921620979 1920,480 C 1920,480 1920,1080 1920,1080 Z" fill="#141414" opacity="0.26666666666666666"/><path d="M 0,1080 C 0,1080 0,600 0,600 C 63.64732083851014,588.9991408707606 127.29464167702028,577.998281741521 188,568 C 248.70535832297972,558.001718258479 306.468754130429,549.0060139046763 370,567 C 433.531245869571,584.9939860953237 502.83034180126367,629.9776626397737 564,641 C 625.1696581987363,652.0223373602263 678.2098786645166,629.0833355362288 756,617 C 833.7901213354834,604.9166644637712 936.33014354067,603.6889952153109 994,601 C 1051.66985645933,598.3110047846891 1064.469547172804,594.1606836025271 1124,600 C 1183.530452827196,605.8393163974729 1289.7916677681144,621.6682703745804 1360,612 C 1430.2083322318856,602.3317296254196 1464.3637817547383,567.1662348991515 1514,572 C 1563.6362182452617,576.8337651008485 1628.7532052129318,621.6667900288138 1699,633 C 1769.2467947870682,644.3332099711862 1844.623397393534,622.166604985593 1920,600 C 1920,600 1920,1080 1920,1080 Z" fill="#141414" opacity="0.3333333333333333"/><path d="M 0,1080 C 0,1080 0,720 0,720 C 49.70128737212191,710.8283459779534 99.40257474424382,701.6566919559069 172,704 C 244.59742525575618,706.3433080440931 340.0909883951466,720.2015781543261 410,713 C 479.9090116048534,705.7984218456739 524.2334716751698,677.536995426789 578,683 C 631.7665283248302,688.463004573211 694.9751249041742,727.6504401385181 767,748 C 839.0248750958258,768.3495598614819 919.8660287081341,769.8612440191387 988,748 C 1056.133971291866,726.1387559808613 1111.5607602632901,680.9045837849269 1174,679 C 1236.4392397367099,677.0954162150731 1305.8909302387058,718.5204208411536 1363,735 C 1420.1090697612942,751.4795791588464 1464.875518781887,743.0137328504586 1523,735 C 1581.124481218113,726.9862671495414 1652.6069946337468,719.4246477570117 1721,717 C 1789.3930053662532,714.5753522429883 1854.6965026831267,717.2876761214941 1920,720 C 1920,720 1920,1080 1920,1080 Z" fill="#141414" opacity="0.4"/><path d="M 0,1080 C 0,1080 0,840 0,840 C 68.50099130296863,842.3214068571731 137.00198260593726,844.6428137143461 196,853 C 254.99801739406274,861.3571862856539 304.49306087921957,875.7501519997885 358,881 C 411.50693912078043,886.2498480002115 469.0257738771843,882.3565782864999 547,874 C 624.9742261228157,865.6434217135001 723.4038436120437,852.8235348542123 783,847 C 842.5961563879563,841.1764651457877 863.3588516746412,842.3492822966508 924,848 C 984.6411483253588,853.6507177033492 1085.1607496893917,863.7793359591847 1170,853 C 1254.8392503106083,842.2206640408153 1323.9981495677919,810.5333738666103 1372,808 C 1420.0018504322081,805.4666261333897 1446.8466520394409,832.0871685743741 1507,842 C 1567.1533479605591,851.9128314256259 1660.6152422744456,845.1179518358931 1735,842 C 1809.3847577255544,838.8820481641069 1864.6923788627773,839.4410240820534 1920,840 C 1920,840 1920,1080 1920,1080 Z" fill="#141414" opacity="0.4666666666666667"/><path d="M 0,1080 C 0,1080 0,960 0,960 C 44.243979486637244,959.9646435274525 88.48795897327449,959.929287054905 158,949 C 227.5120410267255,938.070712945095 322.2921435935394,916.2474953078325 389,923 C 455.7078564064606,929.7525046921675 494.3434666525683,965.0807317137645 554,966 C 613.6565333474317,966.9192682862355 694.333989796188,933.4295778371093 764,929 C 833.666010203812,924.5704221628907 892.3205741626796,949.2009569377989 948,956 C 1003.6794258373204,962.7990430622011 1056.383713553094,951.7665944116948 1125,962 C 1193.616286446906,972.2334055883052 1278.1445716249443,1003.732665415422 1353,991 C 1427.8554283750557,978.267334584578 1493.0379999471302,921.3027439266173 1561,917 C 1628.9620000528698,912.6972560733827 1699.7034285865343,961.0563588781093 1760,977 C 1820.2965714134657,992.9436411218907 1870.1482857067328,976.4718205609454 1920,960 C 1920,960 1920,1080 1920,1080 Z" fill="#141414" opacity="0.5333333333333333"/></svg>