<svg width="1920" height="1080" viewBox="0 0 1920 1080" xmlns="http://www.w3.org/2000/svg"><rect width="1920" height="1080" fill="#a3a3a3"/><path d="M 0,1080 C 0,1080 0,120 0,120 C 60.6286446905813,111.83741309577309 121.2572893811626,103.67482619154616 189,97 C 256.7427106188374,90.32517380845384 331.59948716593084,85.13810832958842 390,83 C 448.40051283406916,80.86189167041158 490.34476195511377,81.7727404901002 549,84 C 607.6552380448862,86.2272595098998 683.021465013614,89.77092971001083 748,106 C 812.978534986386,122.22907028998917 867.5693779904306,151.14354066985646 938,148 C 1008.4306220095694,144.85645933014354 1094.7010230246635,109.65490761056333 1173,107 C 1251.2989769753365,104.34509238943667 1321.626529910915,134.23682888789025 1373,132 C 1424.373470089085,129.76317111210975 1456.7928573316765,95.39777683787571 1512,87 C 1567.2071426683235,78.60222316212429 1645.2020407623781,96.17206376060693 1717,106 C 1788.7979592376219,115.82793623939307 1854.398979618811,117.91396811969653 1920,120 C 1920,120 1920,1080 1920,1080 Z" fill="#fafafa" opacity="0.06666666666666667"/><path d="M 0,1080 C 0,1080 0,240 0,240 C 50.41829020063972,249.57967432393139 100.83658040127943,259.15934864786277 168,255 C 235.16341959872057,250.84065135213723 319.071968595522,232.94227973248033 391,219 C 462.928031404478,205.05772026751967 522.8755452166329,195.07153242221577 579,208 C 635.1244547833671,220.92846757778423 687.4258505379469,256.77159057865657 757,266 C 826.5741494620531,275.22840942134343 913.421052631579,257.84210526315786 985,262 C 1056.578947368421,266.15789473684214 1112.8899389357373,291.85998836871187 1158,281 C 1203.1100610642627,270.14001163128813 1237.0191916254726,222.71794126199472 1308,206 C 1378.9808083745274,189.28205873800528 1487.0332945623727,203.26824658330915 1562,213 C 1636.9667054376273,222.73175341669085 1678.8476301250364,228.20907240476882 1733,232 C 1787.1523698749636,235.79092759523118 1853.5761849374817,237.8954637976156 1920,240 C 1920,240 1920,1080 1920,1080 Z" fill="#fafafa" opacity="0.13333333333333333"/><path d="M 0,1080 C 0,1080 0,360 0,360 C 48.81664860292368,356.9274234053239 97.63329720584736,353.85484681064787 163,365 C 228.36670279415264,376.14515318935213 310.2834597795342,401.5080361627323 382,395 C 453.7165402204658,388.4919638372677 515.2328636760159,350.11300853842295 570,347 C 624.7671363239841,343.88699146157705 672.7850855164027,376.0399296835761 745,391 C 817.2149144835973,405.9600703164239 913.6267942583731,403.72727272727275 985,382 C 1056.3732057416269,360.27272727272725 1102.7077374501046,319.050979407333 1152,324 C 1201.2922625498954,328.949020592667 1253.5422559412093,380.0688096433953 1312,383 C 1370.4577440587907,385.9311903566047 1435.1232387850591,340.6737820190859 1514,336 C 1592.8767612149409,331.3262179809141 1685.9647889185544,367.2360622802612 1756,378 C 1826.0352110814456,388.7639377197388 1873.0176055407228,374.3819688598694 1920,360 C 1920,360 1920,1080 1920,1080 Z" fill="#fafafa" opacity="0.2"/><path d="M 0,1080 C 0,1080 0,480 0,480 C 76.62214174310716,466.0935393481192 153.24428348621433,452.1870786962384 217,451 C 280.75571651378567,449.8129213037616 331.64500779825,461.34522456316574 379,467 C 426.35499220175,472.65477543683426 470.17568532078565,472.4320230510984 543,476 C 615.8243146792144,479.5679769489016 717.6522509186074,486.9266832324408 788,485 C 858.3477490813926,483.0733167675592 897.2153110047848,471.8612440191387 962,479 C 1026.7846889952152,486.1387559808613 1117.4865050622536,511.6283406910042 1184,507 C 1250.5134949377464,502.3716593089958 1292.8386687462,467.62539321684426 1354,447 C 1415.1613312538,426.37460678315574 1495.1588199529463,419.87008644161875 1560,438 C 1624.8411800470537,456.12991355838125 1674.5260514420154,498.8942610166804 1732,510 C 1789.4739485579846,521.1057389833196 1854.7369742789924,500.5528694916598 1920,480 C 1920,480 1920,1080 1920,1080 Z" fill="#fafafa" opacity="0.26666666666666666"/><path d="M 0,1080 C 0,1080 0,600 0,600 C 73.4714769092495,603.0644875624521 146.942953818499,606.1289751249042 212,613 C 277.057046181501,619.8710248750958 333.69966163525345,630.5485870628354 402,619 C 470.30033836474655,607.4514129371646 550.2583996404874,573.6766766237542 608,562 C 665.7416003595126,550.3233233762458 701.2667398027969,560.7447064421476 768,560 C 834.7332601972031,559.2552935578524 932.6746411483252,547.3444976076555 992,559 C 1051.3253588516748,570.6555023923445 1072.0346956039018,605.8773031272304 1127,614 C 1181.9653043960982,622.1226968727696 1271.1865764360675,603.1462898834228 1351,608 C 1430.8134235639325,612.8537101165772 1501.218998651828,641.5375373390784 1564,635 C 1626.781001348172,628.4624626609216 1681.9374289566206,586.7035607602634 1740,575 C 1798.0625710433794,563.2964392397366 1859.0312855216898,581.6482196198683 1920,600 C 1920,600 1920,1080 1920,1080 Z" fill="#fafafa" opacity="0.3333333333333333"/><path d="M 0,1080 C 0,1080 0,720 0,720 C 78.16760950593459,721.353908377171 156.33521901186919,722.707816754342 216,712 C 275.6647809881308,701.292183245658 316.82673345845785,678.5226413598032 368,675 C 419.17326654154215,671.4773586401968 480.35784715429963,687.2016178064449 555,701 C 629.6421528457004,714.7983821935551 717.7418779243437,726.6708874144174 775,731 C 832.2581220756563,735.3291125855826 858.6746411483255,732.1148325358852 924,730 C 989.3253588516745,727.8851674641148 1093.5595574823549,726.8697824420418 1161,739 C 1228.4404425176451,751.1302175579582 1259.0871289222555,776.4060376959477 1318,762 C 1376.9128710777445,747.5939623040523 1464.0919268286236,693.5060667741678 1543,688 C 1621.9080731713764,682.4939332258322 1692.5451637632505,725.5696952073807 1754,739 C 1815.4548362367495,752.4303047926193 1867.7274181183748,736.2151523963096 1920,720 C 1920,720 1920,1080 1920,1080 Z" fill="#fafafa" opacity="0.4"/><path d="M 0,1080 C 0,1080 0,840 0,840 C 52.13549128975126,822.6216394829364 104.27098257950252,805.2432789658727 178,807 C 251.72901742049748,808.7567210341273 347.0515609717412,829.6485236194454 414,844 C 480.9484390282588,858.3514763805546 519.5227735335325,866.1626265563456 583,853 C 646.4772264664675,839.8373734436544 734.8573448941289,805.700970155172 802,796 C 869.1426551058711,786.299029844828 915.0478468899521,801.0334928229667 973,823 C 1030.952153110048,844.9665071770333 1100.9512675460624,874.1650585529619 1154,883 C 1207.0487324539376,891.8349414470381 1243.1470829257978,880.3062729651856 1309,866 C 1374.8529170742022,851.6937270348144 1470.4604007507467,834.6098495862963 1538,840 C 1605.5395992492533,845.3901504137037 1645.0113140712153,873.2543286896296 1704,877 C 1762.9886859287847,880.7456713103704 1841.4943429643922,860.3728356551852 1920,840 C 1920,840 1920,1080 1920,1080 Z" fill="#fafafa" opacity="0.4666666666666667"/><path d="M 0,1080 C 0,1080 0,960 0,960 C 72.07206111713235,972.0422162890904 144.1441222342647,984.0844325781808 200,978 C 255.8558777657353,971.9155674218192 295.4955721800735,947.7044859763673 361,951 C 426.5044278199265,954.2955140236327 517.8735890454413,985.09762351635 597,992 C 676.1264109545587,998.90237648365 743.0100716381612,981.905019958233 803,976 C 862.9899283618388,970.094980041767 916.0861244019138,975.2822966507179 980,967 C 1043.9138755980862,958.7177033492821 1118.6454307541833,936.965793438896 1178,933 C 1237.3545692458167,929.034206561104 1281.3321525813528,942.854529593698 1338,944 C 1394.6678474186472,945.145470406302 1464.025958920405,933.6160881863121 1527,933 C 1589.974041079595,932.3839118136879 1646.5640117370272,942.6811176610538 1711,949 C 1775.4359882629728,955.3188823389462 1847.7179941314864,957.6594411694731 1920,960 C 1920,960 1920,1080 1920,1080 Z" fill="#fafafa" opacity="0.5333333333333333"/></svg>